<mxfile host="app.diagrams.net" modified="2022-06-13T19:51:23.692Z" agent="5.0 (Macintosh; Intel Mac OS X 10_15_7) AppleWebKit/537.36 (KHTML, like Gecko) Chrome/101.0.0.0 Safari/537.36" etag="4bJvC7pi6vj4BUpH1dOQ" version="19.0.1" type="github" pages="3">
  <diagram id="3FdLWZf5M3BtaRXL4Gho" name="Page-1">
    <mxGraphModel dx="1426" dy="737" grid="1" gridSize="10" guides="1" tooltips="1" connect="1" arrows="1" fold="1" page="1" pageScale="1" pageWidth="1169" pageHeight="827" math="0" shadow="0">
      <root>
        <mxCell id="0" />
        <mxCell id="1" parent="0" />
        <mxCell id="iH8hF9wIlFw3gAmA0obx-1" value="ID: 0" style="rounded=0;whiteSpace=wrap;html=1;fillColor=#dae8fc;strokeColor=#000000;" parent="1" vertex="1">
          <mxGeometry x="100" y="460" width="50" height="40" as="geometry" />
        </mxCell>
        <mxCell id="iH8hF9wIlFw3gAmA0obx-2" value="0.0000" style="rounded=0;whiteSpace=wrap;html=1;" parent="1" vertex="1">
          <mxGeometry x="150" y="460" width="50" height="20" as="geometry" />
        </mxCell>
        <mxCell id="iH8hF9wIlFw3gAmA0obx-3" value="0.0000" style="rounded=0;whiteSpace=wrap;html=1;" parent="1" vertex="1">
          <mxGeometry x="150" y="480" width="50" height="20" as="geometry" />
        </mxCell>
        <mxCell id="iH8hF9wIlFw3gAmA0obx-4" value="ID: 1" style="rounded=0;whiteSpace=wrap;html=1;fillColor=#dae8fc;strokeColor=#000000;" parent="1" vertex="1">
          <mxGeometry x="100" y="500" width="50" height="40" as="geometry" />
        </mxCell>
        <mxCell id="iH8hF9wIlFw3gAmA0obx-5" value="-0.2383" style="rounded=0;whiteSpace=wrap;html=1;" parent="1" vertex="1">
          <mxGeometry x="150" y="500" width="50" height="20" as="geometry" />
        </mxCell>
        <mxCell id="iH8hF9wIlFw3gAmA0obx-6" value="-0.1336" style="rounded=0;whiteSpace=wrap;html=1;" parent="1" vertex="1">
          <mxGeometry x="150" y="520" width="50" height="20" as="geometry" />
        </mxCell>
        <mxCell id="iH8hF9wIlFw3gAmA0obx-7" value="•••" style="rounded=0;whiteSpace=wrap;html=1;fillColor=#dae8fc;strokeColor=#000000;horizontal=0;" parent="1" vertex="1">
          <mxGeometry x="100" y="540" width="50" height="40" as="geometry" />
        </mxCell>
        <mxCell id="iH8hF9wIlFw3gAmA0obx-28" style="edgeStyle=orthogonalEdgeStyle;rounded=0;orthogonalLoop=1;jettySize=auto;html=1;exitX=1;exitY=0.5;exitDx=0;exitDy=0;entryX=0;entryY=0.5;entryDx=0;entryDy=0;fontColor=#660000;" parent="1" source="iH8hF9wIlFw3gAmA0obx-8" target="iH8hF9wIlFw3gAmA0obx-16" edge="1">
          <mxGeometry relative="1" as="geometry" />
        </mxCell>
        <mxCell id="iH8hF9wIlFw3gAmA0obx-8" value="•••" style="rounded=0;whiteSpace=wrap;html=1;horizontal=0;" parent="1" vertex="1">
          <mxGeometry x="150" y="540" width="50" height="40" as="geometry" />
        </mxCell>
        <mxCell id="iH8hF9wIlFw3gAmA0obx-10" value="ID: 19" style="rounded=0;whiteSpace=wrap;html=1;fillColor=#dae8fc;strokeColor=#000000;" parent="1" vertex="1">
          <mxGeometry x="100" y="580" width="50" height="40" as="geometry" />
        </mxCell>
        <mxCell id="iH8hF9wIlFw3gAmA0obx-11" value="0.4910" style="rounded=0;whiteSpace=wrap;html=1;" parent="1" vertex="1">
          <mxGeometry x="150" y="580" width="50" height="20" as="geometry" />
        </mxCell>
        <mxCell id="iH8hF9wIlFw3gAmA0obx-12" value="-0.8664" style="rounded=0;whiteSpace=wrap;html=1;" parent="1" vertex="1">
          <mxGeometry x="150" y="600" width="50" height="20" as="geometry" />
        </mxCell>
        <mxCell id="iH8hF9wIlFw3gAmA0obx-13" value="ID: 20" style="rounded=0;whiteSpace=wrap;html=1;fillColor=#dae8fc;strokeColor=#000000;" parent="1" vertex="1">
          <mxGeometry x="100" y="620" width="50" height="40" as="geometry" />
        </mxCell>
        <mxCell id="iH8hF9wIlFw3gAmA0obx-14" value="0.5451" style="rounded=0;whiteSpace=wrap;html=1;" parent="1" vertex="1">
          <mxGeometry x="150" y="620" width="50" height="20" as="geometry" />
        </mxCell>
        <mxCell id="iH8hF9wIlFw3gAmA0obx-15" value="-1.0000" style="rounded=0;whiteSpace=wrap;html=1;" parent="1" vertex="1">
          <mxGeometry x="150" y="640" width="50" height="20" as="geometry" />
        </mxCell>
        <mxCell id="iH8hF9wIlFw3gAmA0obx-29" style="edgeStyle=orthogonalEdgeStyle;rounded=0;orthogonalLoop=1;jettySize=auto;html=1;exitX=1;exitY=0.5;exitDx=0;exitDy=0;entryX=0;entryY=0.5;entryDx=0;entryDy=0;fontColor=#660000;" parent="1" source="iH8hF9wIlFw3gAmA0obx-16" target="iH8hF9wIlFw3gAmA0obx-17" edge="1">
          <mxGeometry relative="1" as="geometry" />
        </mxCell>
        <mxCell id="iH8hF9wIlFw3gAmA0obx-16" value="Входной слой (&lt;b style=&quot;font-size: 15px;&quot;&gt;42&lt;/b&gt; нейрона)" style="rounded=0;whiteSpace=wrap;html=1;strokeColor=#000066;horizontal=0;fontColor=#000066;fontSize=15;" parent="1" vertex="1">
          <mxGeometry x="220" y="460" width="40" height="200" as="geometry" />
        </mxCell>
        <mxCell id="iH8hF9wIlFw3gAmA0obx-30" style="edgeStyle=orthogonalEdgeStyle;rounded=0;orthogonalLoop=1;jettySize=auto;html=1;exitX=1;exitY=0.5;exitDx=0;exitDy=0;entryX=0;entryY=0.5;entryDx=0;entryDy=0;fontColor=#660000;" parent="1" source="iH8hF9wIlFw3gAmA0obx-17" target="iH8hF9wIlFw3gAmA0obx-18" edge="1">
          <mxGeometry relative="1" as="geometry" />
        </mxCell>
        <mxCell id="iH8hF9wIlFw3gAmA0obx-17" value="&lt;b style=&quot;font-size: 15px;&quot;&gt;60&lt;/b&gt;&amp;nbsp;нейронов" style="rounded=0;whiteSpace=wrap;html=1;strokeColor=#000066;horizontal=0;fontColor=#000066;fontSize=15;" parent="1" vertex="1">
          <mxGeometry x="280" y="440" width="40" height="240" as="geometry" />
        </mxCell>
        <mxCell id="iH8hF9wIlFw3gAmA0obx-31" style="edgeStyle=orthogonalEdgeStyle;rounded=0;orthogonalLoop=1;jettySize=auto;html=1;exitX=1;exitY=0.5;exitDx=0;exitDy=0;entryX=0;entryY=0.5;entryDx=0;entryDy=0;fontColor=#660000;" parent="1" source="iH8hF9wIlFw3gAmA0obx-18" target="iH8hF9wIlFw3gAmA0obx-19" edge="1">
          <mxGeometry relative="1" as="geometry" />
        </mxCell>
        <mxCell id="iH8hF9wIlFw3gAmA0obx-18" value="&lt;b style=&quot;font-size: 15px;&quot;&gt;20&lt;/b&gt;&amp;nbsp;нейронов" style="rounded=0;whiteSpace=wrap;html=1;strokeColor=#000066;horizontal=0;fontColor=#000066;fontSize=15;" parent="1" vertex="1">
          <mxGeometry x="340" y="500" width="40" height="120" as="geometry" />
        </mxCell>
        <mxCell id="iH8hF9wIlFw3gAmA0obx-32" style="edgeStyle=orthogonalEdgeStyle;rounded=0;orthogonalLoop=1;jettySize=auto;html=1;exitX=1;exitY=0.5;exitDx=0;exitDy=0;entryX=-0.086;entryY=0.498;entryDx=0;entryDy=0;entryPerimeter=0;fontColor=#660000;" parent="1" source="iH8hF9wIlFw3gAmA0obx-19" target="iH8hF9wIlFw3gAmA0obx-20" edge="1">
          <mxGeometry relative="1" as="geometry" />
        </mxCell>
        <mxCell id="iH8hF9wIlFw3gAmA0obx-19" value="Дропаут &lt;b style=&quot;font-size: 15px;&quot;&gt;20%&lt;/b&gt;" style="rounded=0;whiteSpace=wrap;html=1;strokeColor=#660000;horizontal=0;fontColor=#660000;fontSize=15;" parent="1" vertex="1">
          <mxGeometry x="400" y="520" width="40" height="80" as="geometry" />
        </mxCell>
        <mxCell id="iH8hF9wIlFw3gAmA0obx-34" style="edgeStyle=orthogonalEdgeStyle;rounded=0;orthogonalLoop=1;jettySize=auto;html=1;exitX=1;exitY=0.5;exitDx=0;exitDy=0;entryX=0;entryY=0.5;entryDx=0;entryDy=0;fontColor=#660000;" parent="1" source="iH8hF9wIlFw3gAmA0obx-20" target="iH8hF9wIlFw3gAmA0obx-21" edge="1">
          <mxGeometry relative="1" as="geometry" />
        </mxCell>
        <mxCell id="iH8hF9wIlFw3gAmA0obx-20" value="&lt;b style=&quot;font-size: 16px;&quot;&gt;40&lt;/b&gt;&amp;nbsp;нейронов" style="rounded=0;whiteSpace=wrap;html=1;strokeColor=#000066;horizontal=0;fontColor=#000066;fontSize=16;" parent="1" vertex="1">
          <mxGeometry x="460" y="470" width="40" height="180" as="geometry" />
        </mxCell>
        <mxCell id="iH8hF9wIlFw3gAmA0obx-35" style="edgeStyle=orthogonalEdgeStyle;rounded=0;orthogonalLoop=1;jettySize=auto;html=1;exitX=1;exitY=0.5;exitDx=0;exitDy=0;entryX=0;entryY=0.5;entryDx=0;entryDy=0;fontColor=#660000;" parent="1" source="iH8hF9wIlFw3gAmA0obx-21" target="iH8hF9wIlFw3gAmA0obx-22" edge="1">
          <mxGeometry relative="1" as="geometry" />
        </mxCell>
        <mxCell id="iH8hF9wIlFw3gAmA0obx-21" value="Дропаут 4&lt;b style=&quot;font-size: 15px;&quot;&gt;0%&lt;/b&gt;" style="rounded=0;whiteSpace=wrap;html=1;strokeColor=#660000;horizontal=0;fontColor=#660000;fontSize=15;" parent="1" vertex="1">
          <mxGeometry x="520" y="500" width="40" height="120" as="geometry" />
        </mxCell>
        <mxCell id="iH8hF9wIlFw3gAmA0obx-37" style="edgeStyle=orthogonalEdgeStyle;rounded=0;orthogonalLoop=1;jettySize=auto;html=1;exitX=1;exitY=0.5;exitDx=0;exitDy=0;entryX=0;entryY=0.5;entryDx=0;entryDy=0;fontColor=#660000;" parent="1" source="iH8hF9wIlFw3gAmA0obx-22" target="iH8hF9wIlFw3gAmA0obx-23" edge="1">
          <mxGeometry relative="1" as="geometry" />
        </mxCell>
        <mxCell id="iH8hF9wIlFw3gAmA0obx-22" value="&lt;b style=&quot;font-size: 15px;&quot;&gt;60&lt;/b&gt;&amp;nbsp;нейронов" style="rounded=0;whiteSpace=wrap;html=1;strokeColor=#000066;horizontal=0;fontColor=#000066;fontSize=15;" parent="1" vertex="1">
          <mxGeometry x="580" y="440" width="40" height="240" as="geometry" />
        </mxCell>
        <mxCell id="iH8hF9wIlFw3gAmA0obx-38" style="edgeStyle=orthogonalEdgeStyle;rounded=0;orthogonalLoop=1;jettySize=auto;html=1;exitX=1;exitY=0.5;exitDx=0;exitDy=0;entryX=0;entryY=0.5;entryDx=0;entryDy=0;fontColor=#660000;" parent="1" source="iH8hF9wIlFw3gAmA0obx-23" target="iH8hF9wIlFw3gAmA0obx-24" edge="1">
          <mxGeometry relative="1" as="geometry" />
        </mxCell>
        <mxCell id="iH8hF9wIlFw3gAmA0obx-23" value="Дропаут &lt;b style=&quot;font-size: 15px;&quot;&gt;20%&lt;/b&gt;" style="rounded=0;whiteSpace=wrap;html=1;strokeColor=#660000;horizontal=0;fontColor=#660000;fontSize=15;" parent="1" vertex="1">
          <mxGeometry x="640" y="520" width="40" height="80" as="geometry" />
        </mxCell>
        <mxCell id="iH8hF9wIlFw3gAmA0obx-39" style="edgeStyle=orthogonalEdgeStyle;rounded=0;orthogonalLoop=1;jettySize=auto;html=1;exitX=1;exitY=0.5;exitDx=0;exitDy=0;fontColor=#660000;" parent="1" source="iH8hF9wIlFw3gAmA0obx-24" target="iH8hF9wIlFw3gAmA0obx-25" edge="1">
          <mxGeometry relative="1" as="geometry" />
        </mxCell>
        <mxCell id="iH8hF9wIlFw3gAmA0obx-24" value="&lt;b style=&quot;font-size: 15px;&quot;&gt;40&lt;/b&gt;&amp;nbsp;нейронов" style="rounded=0;whiteSpace=wrap;html=1;strokeColor=#000066;horizontal=0;fontColor=#000066;fontSize=15;" parent="1" vertex="1">
          <mxGeometry x="700" y="470" width="40" height="180" as="geometry" />
        </mxCell>
        <mxCell id="UypsiEIgTypMq3okiiAQ-3" value="" style="edgeStyle=orthogonalEdgeStyle;rounded=0;orthogonalLoop=1;jettySize=auto;html=1;" parent="1" source="iH8hF9wIlFw3gAmA0obx-25" target="iH8hF9wIlFw3gAmA0obx-26" edge="1">
          <mxGeometry relative="1" as="geometry" />
        </mxCell>
        <mxCell id="iH8hF9wIlFw3gAmA0obx-25" value="&lt;b style=&quot;font-size: 15px;&quot;&gt;20&lt;/b&gt;&amp;nbsp;нейронов" style="rounded=0;whiteSpace=wrap;html=1;strokeColor=#000066;horizontal=0;fontColor=#000066;fontSize=15;" parent="1" vertex="1">
          <mxGeometry x="760" y="500" width="40" height="120" as="geometry" />
        </mxCell>
        <mxCell id="iH8hF9wIlFw3gAmA0obx-26" value="Выходной слой (&lt;i style=&quot;font-size: 15px;&quot;&gt;&lt;b style=&quot;font-size: 15px;&quot;&gt;n&lt;/b&gt;&amp;nbsp;&lt;/i&gt;нейронов)" style="rounded=0;whiteSpace=wrap;html=1;strokeColor=#000066;horizontal=0;fontColor=#000066;fontSize=15;" parent="1" vertex="1">
          <mxGeometry x="820" y="500" width="40" height="120" as="geometry" />
        </mxCell>
      </root>
    </mxGraphModel>
  </diagram>
  <diagram id="8U00Z0J6kB37hbak7Ldf" name="Page-2">
    <mxGraphModel dx="1426" dy="737" grid="1" gridSize="10" guides="1" tooltips="1" connect="1" arrows="1" fold="1" page="1" pageScale="1" pageWidth="1169" pageHeight="827" math="0" shadow="0">
      <root>
        <mxCell id="0" />
        <mxCell id="1" parent="0" />
        <mxCell id="R0pYgVK6OW7ElSNHJrHy-1" value="ID: 0" style="rounded=0;whiteSpace=wrap;html=1;fillColor=#dae8fc;strokeColor=#000000;" parent="1" vertex="1">
          <mxGeometry x="80" y="200" width="80" height="40" as="geometry" />
        </mxCell>
        <mxCell id="R0pYgVK6OW7ElSNHJrHy-2" value="0.0000" style="rounded=0;whiteSpace=wrap;html=1;" parent="1" vertex="1">
          <mxGeometry x="160" y="200" width="80" height="20" as="geometry" />
        </mxCell>
        <mxCell id="R0pYgVK6OW7ElSNHJrHy-3" value="0.0000" style="rounded=0;whiteSpace=wrap;html=1;" parent="1" vertex="1">
          <mxGeometry x="160" y="220" width="80" height="20" as="geometry" />
        </mxCell>
        <mxCell id="R0pYgVK6OW7ElSNHJrHy-13" value="ID: 20" style="rounded=0;whiteSpace=wrap;html=1;fillColor=#dae8fc;strokeColor=#000000;" parent="1" vertex="1">
          <mxGeometry x="80" y="280" width="80" height="40" as="geometry" />
        </mxCell>
        <mxCell id="R0pYgVK6OW7ElSNHJrHy-14" value="-0.1000" style="rounded=0;whiteSpace=wrap;html=1;" parent="1" vertex="1">
          <mxGeometry x="160" y="280" width="80" height="20" as="geometry" />
        </mxCell>
        <mxCell id="R0pYgVK6OW7ElSNHJrHy-15" value="-0.1101" style="rounded=0;whiteSpace=wrap;html=1;" parent="1" vertex="1">
          <mxGeometry x="160" y="300" width="80" height="20" as="geometry" />
        </mxCell>
        <mxCell id="R0pYgVK6OW7ElSNHJrHy-97" value="" style="edgeStyle=orthogonalEdgeStyle;rounded=0;orthogonalLoop=1;jettySize=auto;html=1;" parent="1" source="R0pYgVK6OW7ElSNHJrHy-17" target="R0pYgVK6OW7ElSNHJrHy-23" edge="1">
          <mxGeometry relative="1" as="geometry" />
        </mxCell>
        <mxCell id="R0pYgVK6OW7ElSNHJrHy-17" value="LSTM (&lt;b style=&quot;font-size: 15px;&quot;&gt;50&lt;/b&gt; выходов)" style="rounded=0;whiteSpace=wrap;html=1;strokeColor=#000066;horizontal=0;fontColor=#000066;fontSize=15;" parent="1" vertex="1">
          <mxGeometry x="270" y="280" width="40" height="200" as="geometry" />
        </mxCell>
        <mxCell id="R0pYgVK6OW7ElSNHJrHy-22" style="edgeStyle=orthogonalEdgeStyle;rounded=0;orthogonalLoop=1;jettySize=auto;html=1;exitX=1;exitY=0.5;exitDx=0;exitDy=0;entryX=-0.086;entryY=0.498;entryDx=0;entryDy=0;entryPerimeter=0;fontColor=#660000;" parent="1" source="R0pYgVK6OW7ElSNHJrHy-23" target="R0pYgVK6OW7ElSNHJrHy-25" edge="1">
          <mxGeometry relative="1" as="geometry" />
        </mxCell>
        <mxCell id="R0pYgVK6OW7ElSNHJrHy-23" value="Дропаут &lt;b style=&quot;font-size: 15px;&quot;&gt;20%&lt;/b&gt;" style="rounded=0;whiteSpace=wrap;html=1;strokeColor=#660000;horizontal=0;fontColor=#660000;fontSize=15;" parent="1" vertex="1">
          <mxGeometry x="340" y="340" width="40" height="80" as="geometry" />
        </mxCell>
        <mxCell id="R0pYgVK6OW7ElSNHJrHy-99" value="" style="edgeStyle=orthogonalEdgeStyle;rounded=0;orthogonalLoop=1;jettySize=auto;html=1;" parent="1" source="R0pYgVK6OW7ElSNHJrHy-25" target="R0pYgVK6OW7ElSNHJrHy-36" edge="1">
          <mxGeometry relative="1" as="geometry" />
        </mxCell>
        <mxCell id="R0pYgVK6OW7ElSNHJrHy-25" value="Скрытый слой (&lt;b style=&quot;font-size: 15px;&quot;&gt;100&lt;/b&gt;&amp;nbsp;нейронов)" style="rounded=0;whiteSpace=wrap;html=1;strokeColor=#000066;horizontal=0;fontColor=#000066;fontSize=15;" parent="1" vertex="1">
          <mxGeometry x="420" y="200" width="40" height="360" as="geometry" />
        </mxCell>
        <mxCell id="R0pYgVK6OW7ElSNHJrHy-36" value="Выходной слой (&lt;i style=&quot;font-size: 15px;&quot;&gt;&lt;b style=&quot;font-size: 15px;&quot;&gt;n&lt;/b&gt;&amp;nbsp;&lt;/i&gt;нейронов)" style="rounded=0;whiteSpace=wrap;html=1;strokeColor=#000066;horizontal=0;fontColor=#000066;fontSize=15;" parent="1" vertex="1">
          <mxGeometry x="500" y="320" width="40" height="120" as="geometry" />
        </mxCell>
        <mxCell id="R0pYgVK6OW7ElSNHJrHy-72" value="•••" style="rounded=0;whiteSpace=wrap;html=1;fillColor=#dae8fc;strokeColor=#000000;horizontal=0;" parent="1" vertex="1">
          <mxGeometry x="80" y="240" width="80" height="40" as="geometry" />
        </mxCell>
        <mxCell id="R0pYgVK6OW7ElSNHJrHy-73" value="•••" style="rounded=0;whiteSpace=wrap;html=1;horizontal=0;" parent="1" vertex="1">
          <mxGeometry x="160" y="240" width="80" height="40" as="geometry" />
        </mxCell>
        <mxCell id="R0pYgVK6OW7ElSNHJrHy-75" value="ID: 0" style="rounded=0;whiteSpace=wrap;html=1;fillColor=#dae8fc;strokeColor=#000000;" parent="1" vertex="1">
          <mxGeometry x="80" y="320" width="80" height="40" as="geometry" />
        </mxCell>
        <mxCell id="R0pYgVK6OW7ElSNHJrHy-76" value="0.0000" style="rounded=0;whiteSpace=wrap;html=1;" parent="1" vertex="1">
          <mxGeometry x="160" y="320" width="80" height="20" as="geometry" />
        </mxCell>
        <mxCell id="R0pYgVK6OW7ElSNHJrHy-77" value="0.0000" style="rounded=0;whiteSpace=wrap;html=1;" parent="1" vertex="1">
          <mxGeometry x="160" y="340" width="80" height="20" as="geometry" />
        </mxCell>
        <mxCell id="R0pYgVK6OW7ElSNHJrHy-79" value="ID: 20" style="rounded=0;whiteSpace=wrap;html=1;fillColor=#dae8fc;strokeColor=#000000;" parent="1" vertex="1">
          <mxGeometry x="80" y="400" width="80" height="40" as="geometry" />
        </mxCell>
        <mxCell id="R0pYgVK6OW7ElSNHJrHy-80" value="-0.0887" style="rounded=0;whiteSpace=wrap;html=1;" parent="1" vertex="1">
          <mxGeometry x="160" y="400" width="80" height="20" as="geometry" />
        </mxCell>
        <mxCell id="R0pYgVK6OW7ElSNHJrHy-81" value="-0.1091" style="rounded=0;whiteSpace=wrap;html=1;" parent="1" vertex="1">
          <mxGeometry x="160" y="420" width="80" height="20" as="geometry" />
        </mxCell>
        <mxCell id="R0pYgVK6OW7ElSNHJrHy-82" value="•••" style="rounded=0;whiteSpace=wrap;html=1;fillColor=#dae8fc;strokeColor=#000000;horizontal=0;" parent="1" vertex="1">
          <mxGeometry x="80" y="360" width="80" height="40" as="geometry" />
        </mxCell>
        <mxCell id="R0pYgVK6OW7ElSNHJrHy-96" value="" style="edgeStyle=orthogonalEdgeStyle;rounded=0;orthogonalLoop=1;jettySize=auto;html=1;" parent="1" source="R0pYgVK6OW7ElSNHJrHy-83" target="R0pYgVK6OW7ElSNHJrHy-17" edge="1">
          <mxGeometry relative="1" as="geometry" />
        </mxCell>
        <mxCell id="R0pYgVK6OW7ElSNHJrHy-83" value="•••" style="rounded=0;whiteSpace=wrap;html=1;horizontal=0;" parent="1" vertex="1">
          <mxGeometry x="160" y="360" width="80" height="40" as="geometry" />
        </mxCell>
        <mxCell id="R0pYgVK6OW7ElSNHJrHy-84" value="•••" style="rounded=0;whiteSpace=wrap;html=1;fillColor=#dae8fc;strokeColor=#000000;horizontal=0;" parent="1" vertex="1">
          <mxGeometry x="80" y="440" width="80" height="40" as="geometry" />
        </mxCell>
        <mxCell id="R0pYgVK6OW7ElSNHJrHy-85" value="•••" style="rounded=0;whiteSpace=wrap;html=1;horizontal=0;" parent="1" vertex="1">
          <mxGeometry x="160" y="440" width="80" height="40" as="geometry" />
        </mxCell>
        <mxCell id="R0pYgVK6OW7ElSNHJrHy-86" value="" style="rounded=0;whiteSpace=wrap;html=1;fillColor=#dae8fc;strokeColor=#000000;" parent="1" vertex="1">
          <mxGeometry x="80" y="480" width="80" height="40" as="geometry" />
        </mxCell>
        <mxCell id="R0pYgVK6OW7ElSNHJrHy-87" value="0.0000" style="rounded=0;whiteSpace=wrap;html=1;" parent="1" vertex="1">
          <mxGeometry x="160" y="480" width="80" height="20" as="geometry" />
        </mxCell>
        <mxCell id="R0pYgVK6OW7ElSNHJrHy-88" value="0.0000" style="rounded=0;whiteSpace=wrap;html=1;" parent="1" vertex="1">
          <mxGeometry x="160" y="500" width="80" height="20" as="geometry" />
        </mxCell>
        <mxCell id="R0pYgVK6OW7ElSNHJrHy-89" value="" style="rounded=0;whiteSpace=wrap;html=1;fillColor=#dae8fc;strokeColor=#000000;" parent="1" vertex="1">
          <mxGeometry x="80" y="520" width="80" height="40" as="geometry" />
        </mxCell>
        <mxCell id="R0pYgVK6OW7ElSNHJrHy-91" value="•••" style="rounded=0;whiteSpace=wrap;html=1;" parent="1" vertex="1">
          <mxGeometry x="160" y="520" width="80" height="20" as="geometry" />
        </mxCell>
        <mxCell id="R0pYgVK6OW7ElSNHJrHy-92" value="•••" style="rounded=0;whiteSpace=wrap;html=1;" parent="1" vertex="1">
          <mxGeometry x="160" y="540" width="80" height="20" as="geometry" />
        </mxCell>
        <mxCell id="R0pYgVK6OW7ElSNHJrHy-93" value="•••" style="rounded=0;whiteSpace=wrap;html=1;" parent="1" vertex="1">
          <mxGeometry x="160" y="560" width="80" height="20" as="geometry" />
        </mxCell>
        <mxCell id="R0pYgVK6OW7ElSNHJrHy-94" value="•••" style="rounded=0;whiteSpace=wrap;html=1;fillColor=#dae8fc;strokeColor=#000000;" parent="1" vertex="1">
          <mxGeometry x="80" y="560" width="80" height="20" as="geometry" />
        </mxCell>
      </root>
    </mxGraphModel>
  </diagram>
  <diagram id="T5s3izHhDWMNtWWKrGtT" name="Page-3">
    <mxGraphModel dx="1426" dy="737" grid="1" gridSize="10" guides="1" tooltips="1" connect="1" arrows="1" fold="1" page="1" pageScale="1" pageWidth="1169" pageHeight="827" math="0" shadow="0">
      <root>
        <mxCell id="0" />
        <mxCell id="1" parent="0" />
        <mxCell id="yjpIrwGJ6rav2fHuaCzg-1" value="ID: 0" style="rounded=0;whiteSpace=wrap;html=1;fillColor=#dae8fc;strokeColor=#000000;" vertex="1" parent="1">
          <mxGeometry x="100" y="460" width="50" height="40" as="geometry" />
        </mxCell>
        <mxCell id="yjpIrwGJ6rav2fHuaCzg-2" value="0.0000" style="rounded=0;whiteSpace=wrap;html=1;" vertex="1" parent="1">
          <mxGeometry x="150" y="460" width="50" height="20" as="geometry" />
        </mxCell>
        <mxCell id="yjpIrwGJ6rav2fHuaCzg-3" value="0.0000" style="rounded=0;whiteSpace=wrap;html=1;" vertex="1" parent="1">
          <mxGeometry x="150" y="480" width="50" height="20" as="geometry" />
        </mxCell>
        <mxCell id="yjpIrwGJ6rav2fHuaCzg-4" value="ID: 1" style="rounded=0;whiteSpace=wrap;html=1;fillColor=#dae8fc;strokeColor=#000000;" vertex="1" parent="1">
          <mxGeometry x="100" y="500" width="50" height="40" as="geometry" />
        </mxCell>
        <mxCell id="yjpIrwGJ6rav2fHuaCzg-5" value="-0.2383" style="rounded=0;whiteSpace=wrap;html=1;" vertex="1" parent="1">
          <mxGeometry x="150" y="500" width="50" height="20" as="geometry" />
        </mxCell>
        <mxCell id="yjpIrwGJ6rav2fHuaCzg-6" value="-0.1336" style="rounded=0;whiteSpace=wrap;html=1;" vertex="1" parent="1">
          <mxGeometry x="150" y="520" width="50" height="20" as="geometry" />
        </mxCell>
        <mxCell id="yjpIrwGJ6rav2fHuaCzg-7" value="•••" style="rounded=0;whiteSpace=wrap;html=1;fillColor=#dae8fc;strokeColor=#000000;horizontal=0;" vertex="1" parent="1">
          <mxGeometry x="100" y="540" width="50" height="40" as="geometry" />
        </mxCell>
        <mxCell id="yjpIrwGJ6rav2fHuaCzg-8" style="edgeStyle=orthogonalEdgeStyle;rounded=0;orthogonalLoop=1;jettySize=auto;html=1;exitX=1;exitY=0.5;exitDx=0;exitDy=0;entryX=0;entryY=0.5;entryDx=0;entryDy=0;fontColor=#660000;" edge="1" parent="1" source="yjpIrwGJ6rav2fHuaCzg-9" target="yjpIrwGJ6rav2fHuaCzg-17">
          <mxGeometry relative="1" as="geometry" />
        </mxCell>
        <mxCell id="yjpIrwGJ6rav2fHuaCzg-9" value="•••" style="rounded=0;whiteSpace=wrap;html=1;horizontal=0;" vertex="1" parent="1">
          <mxGeometry x="150" y="540" width="50" height="40" as="geometry" />
        </mxCell>
        <mxCell id="yjpIrwGJ6rav2fHuaCzg-10" value="ID: 19" style="rounded=0;whiteSpace=wrap;html=1;fillColor=#dae8fc;strokeColor=#000000;" vertex="1" parent="1">
          <mxGeometry x="100" y="580" width="50" height="40" as="geometry" />
        </mxCell>
        <mxCell id="yjpIrwGJ6rav2fHuaCzg-11" value="0.4910" style="rounded=0;whiteSpace=wrap;html=1;" vertex="1" parent="1">
          <mxGeometry x="150" y="580" width="50" height="20" as="geometry" />
        </mxCell>
        <mxCell id="yjpIrwGJ6rav2fHuaCzg-12" value="-0.8664" style="rounded=0;whiteSpace=wrap;html=1;" vertex="1" parent="1">
          <mxGeometry x="150" y="600" width="50" height="20" as="geometry" />
        </mxCell>
        <mxCell id="yjpIrwGJ6rav2fHuaCzg-13" value="ID: 20" style="rounded=0;whiteSpace=wrap;html=1;fillColor=#dae8fc;strokeColor=#000000;" vertex="1" parent="1">
          <mxGeometry x="100" y="620" width="50" height="40" as="geometry" />
        </mxCell>
        <mxCell id="yjpIrwGJ6rav2fHuaCzg-14" value="0.5451" style="rounded=0;whiteSpace=wrap;html=1;" vertex="1" parent="1">
          <mxGeometry x="150" y="620" width="50" height="20" as="geometry" />
        </mxCell>
        <mxCell id="yjpIrwGJ6rav2fHuaCzg-15" value="-1.0000" style="rounded=0;whiteSpace=wrap;html=1;" vertex="1" parent="1">
          <mxGeometry x="150" y="640" width="50" height="20" as="geometry" />
        </mxCell>
        <mxCell id="yjpIrwGJ6rav2fHuaCzg-37" style="edgeStyle=orthogonalEdgeStyle;rounded=0;orthogonalLoop=1;jettySize=auto;html=1;exitX=1;exitY=0.5;exitDx=0;exitDy=0;entryX=0;entryY=0.5;entryDx=0;entryDy=0;fontSize=15;" edge="1" parent="1" source="yjpIrwGJ6rav2fHuaCzg-17" target="yjpIrwGJ6rav2fHuaCzg-23">
          <mxGeometry relative="1" as="geometry" />
        </mxCell>
        <mxCell id="yjpIrwGJ6rav2fHuaCzg-17" value="Входной слой (&lt;b style=&quot;font-size: 15px;&quot;&gt;42&lt;/b&gt; нейрона)" style="rounded=0;whiteSpace=wrap;html=1;strokeColor=#000066;horizontal=0;fontColor=#000066;fontSize=15;" vertex="1" parent="1">
          <mxGeometry x="230" y="410" width="40" height="300" as="geometry" />
        </mxCell>
        <mxCell id="yjpIrwGJ6rav2fHuaCzg-18" style="edgeStyle=orthogonalEdgeStyle;rounded=0;orthogonalLoop=1;jettySize=auto;html=1;exitX=1;exitY=0.5;exitDx=0;exitDy=0;entryX=0;entryY=0.5;entryDx=0;entryDy=0;fontColor=#660000;" edge="1" parent="1" source="yjpIrwGJ6rav2fHuaCzg-19">
          <mxGeometry relative="1" as="geometry">
            <mxPoint x="340" y="560" as="targetPoint" />
          </mxGeometry>
        </mxCell>
        <mxCell id="yjpIrwGJ6rav2fHuaCzg-22" style="edgeStyle=orthogonalEdgeStyle;rounded=0;orthogonalLoop=1;jettySize=auto;html=1;exitX=1;exitY=0.5;exitDx=0;exitDy=0;entryX=-0.086;entryY=0.498;entryDx=0;entryDy=0;entryPerimeter=0;fontColor=#660000;" edge="1" parent="1" source="yjpIrwGJ6rav2fHuaCzg-23" target="yjpIrwGJ6rav2fHuaCzg-25">
          <mxGeometry relative="1" as="geometry" />
        </mxCell>
        <mxCell id="yjpIrwGJ6rav2fHuaCzg-23" value="Дропаут &lt;b style=&quot;font-size: 15px;&quot;&gt;20%&lt;/b&gt;" style="rounded=0;whiteSpace=wrap;html=1;strokeColor=#660000;horizontal=0;fontColor=#660000;fontSize=15;" vertex="1" parent="1">
          <mxGeometry x="300" y="510" width="30" height="100" as="geometry" />
        </mxCell>
        <mxCell id="yjpIrwGJ6rav2fHuaCzg-24" style="edgeStyle=orthogonalEdgeStyle;rounded=0;orthogonalLoop=1;jettySize=auto;html=1;exitX=1;exitY=0.5;exitDx=0;exitDy=0;entryX=0;entryY=0.5;entryDx=0;entryDy=0;fontColor=#660000;" edge="1" parent="1" source="yjpIrwGJ6rav2fHuaCzg-25" target="yjpIrwGJ6rav2fHuaCzg-27">
          <mxGeometry relative="1" as="geometry" />
        </mxCell>
        <mxCell id="yjpIrwGJ6rav2fHuaCzg-25" value="&lt;b style=&quot;font-size: 16px;&quot;&gt;20&lt;/b&gt;&amp;nbsp;нейронов" style="rounded=0;whiteSpace=wrap;html=1;strokeColor=#000066;horizontal=0;fontColor=#000066;fontSize=16;" vertex="1" parent="1">
          <mxGeometry x="360" y="470" width="40" height="180" as="geometry" />
        </mxCell>
        <mxCell id="yjpIrwGJ6rav2fHuaCzg-26" style="edgeStyle=orthogonalEdgeStyle;rounded=0;orthogonalLoop=1;jettySize=auto;html=1;exitX=1;exitY=0.5;exitDx=0;exitDy=0;entryX=0;entryY=0.5;entryDx=0;entryDy=0;fontColor=#660000;" edge="1" parent="1" source="yjpIrwGJ6rav2fHuaCzg-27" target="yjpIrwGJ6rav2fHuaCzg-29">
          <mxGeometry relative="1" as="geometry" />
        </mxCell>
        <mxCell id="yjpIrwGJ6rav2fHuaCzg-27" value="Дропаут 4&lt;b style=&quot;font-size: 15px;&quot;&gt;0%&lt;/b&gt;" style="rounded=0;whiteSpace=wrap;html=1;strokeColor=#660000;horizontal=0;fontColor=#660000;fontSize=15;" vertex="1" parent="1">
          <mxGeometry x="430" y="500" width="40" height="120" as="geometry" />
        </mxCell>
        <mxCell id="yjpIrwGJ6rav2fHuaCzg-38" style="edgeStyle=orthogonalEdgeStyle;rounded=0;orthogonalLoop=1;jettySize=auto;html=1;exitX=1;exitY=0.5;exitDx=0;exitDy=0;fontSize=15;" edge="1" parent="1" source="yjpIrwGJ6rav2fHuaCzg-29" target="yjpIrwGJ6rav2fHuaCzg-36">
          <mxGeometry relative="1" as="geometry" />
        </mxCell>
        <mxCell id="yjpIrwGJ6rav2fHuaCzg-29" value="&lt;b style=&quot;font-size: 15px;&quot;&gt;20&lt;/b&gt;&amp;nbsp;нейронов" style="rounded=0;whiteSpace=wrap;html=1;strokeColor=#000066;horizontal=0;fontColor=#000066;fontSize=15;" vertex="1" parent="1">
          <mxGeometry x="500" y="470" width="40" height="180" as="geometry" />
        </mxCell>
        <mxCell id="yjpIrwGJ6rav2fHuaCzg-30" style="edgeStyle=orthogonalEdgeStyle;rounded=0;orthogonalLoop=1;jettySize=auto;html=1;exitX=1;exitY=0.5;exitDx=0;exitDy=0;entryX=0;entryY=0.5;entryDx=0;entryDy=0;fontColor=#660000;" edge="1" parent="1" source="yjpIrwGJ6rav2fHuaCzg-31">
          <mxGeometry relative="1" as="geometry">
            <mxPoint x="700" y="560" as="targetPoint" />
          </mxGeometry>
        </mxCell>
        <mxCell id="yjpIrwGJ6rav2fHuaCzg-32" style="edgeStyle=orthogonalEdgeStyle;rounded=0;orthogonalLoop=1;jettySize=auto;html=1;exitX=1;exitY=0.5;exitDx=0;exitDy=0;fontColor=#660000;" edge="1" parent="1" source="yjpIrwGJ6rav2fHuaCzg-33">
          <mxGeometry relative="1" as="geometry">
            <mxPoint x="760" y="560" as="targetPoint" />
          </mxGeometry>
        </mxCell>
        <mxCell id="yjpIrwGJ6rav2fHuaCzg-36" value="Выходной слой (&lt;i style=&quot;font-size: 15px;&quot;&gt;&lt;b style=&quot;font-size: 15px;&quot;&gt;n&lt;/b&gt;&amp;nbsp;&lt;/i&gt;нейронов)" style="rounded=0;whiteSpace=wrap;html=1;strokeColor=#000066;horizontal=0;fontColor=#000066;fontSize=15;" vertex="1" parent="1">
          <mxGeometry x="570" y="485" width="45" height="150" as="geometry" />
        </mxCell>
      </root>
    </mxGraphModel>
  </diagram>
</mxfile>
